# xmcd
#
# Track frame offsets: 
#        150
#        19327
#        36943
#        58112
#        82376
#        100378
#        117851
#        142626
#        162208
#        186470
#        203525
#        217483
#        237958
#        270340
#        286630
#        302686
#        318602
#
# Disc length: 4496 seconds
#
# Revision: 3
# Processed by: cddbd v1.5.2PL0 Copyright (c) Steve Scherf et al.
# Submitted via: ExactAudioCopy v1.0b3
#
DISCID=f9118e11
DTITLE=Kenny Wayne Shepherd - How I Go (Special Edition)
DYEAR=2011
DGENRE=Blues Rock
TTITLE0=Never Lookin' Back
TTITLE1=Come On Over
TTITLE2=Yer Blues
TTITLE3=Show Me The Way Back Home
TTITLE4=Cold
TTITLE5=Oh, Pretty Woman
TTITLE6=Anywhere The Wind Blows
TTITLE7=Dark Side Of Love
TTITLE8=Heat Of The Sun
TTITLE9=Round And Round
TTITLE10=The Wire
TTITLE11=Who's Gonna Catch You Now
TTITLE12=Backwater Blues
TTITLE13=Strut
TTITLE14=Butterfly
TTITLE15=Cryin' Shame
TTITLE16=Baby The Rain Must Fall
EXTD=
EXTT0=
EXTT1=
EXTT2=
EXTT3=
EXTT4=
EXTT5=
EXTT6=
EXTT7=
EXTT8=
EXTT9=
EXTT10=
EXTT11=
EXTT12=
EXTT13=
EXTT14=
EXTT15=
EXTT16=
PLAYORDER=
